<mxfile host="app.diagrams.net" modified="2021-03-22T11:04:54.941Z" agent="5.0 (Macintosh; Intel Mac OS X 10_15_3) AppleWebKit/605.1.15 (KHTML, like Gecko) Version/13.0.5 Safari/605.1.15" etag="ourUdfHr8GqSdgnhIWXj" version="14.4.9" type="github">
  <diagram id="cBVS3EAAvKyXNBBs6_dT" name="Page-1">
    <mxGraphModel dx="599" dy="700" grid="1" gridSize="10" guides="1" tooltips="1" connect="1" arrows="1" fold="1" page="1" pageScale="1" pageWidth="850" pageHeight="1100" math="0" shadow="0">
      <root>
        <mxCell id="0" />
        <mxCell id="1" parent="0" />
        <mxCell id="tRnzTcPrwXnXobdImTXJ-1" value="&lt;pre style=&quot;font-style: normal ; font-weight: normal ; letter-spacing: normal ; text-indent: 0px ; text-transform: none ; word-spacing: 0px ; text-decoration: none ; background-color: rgb(43 , 43 , 43) ; color: rgb(169 , 183 , 198) ; font-family: &amp;quot;jetbrains mono&amp;quot; , monospace&quot;&gt;&lt;span style=&quot;color: rgb(204 , 120 , 50)&quot;&gt;public final void &lt;/span&gt;&lt;span style=&quot;color: rgb(255 , 198 , 109)&quot;&gt;subscribe&lt;/span&gt;(Subscriber&amp;lt;? &lt;span style=&quot;color: rgb(204 , 120 , 50)&quot;&gt;super &lt;/span&gt;&lt;span style=&quot;color: rgb(80 , 120 , 116)&quot;&gt;T&lt;/span&gt;&amp;gt; actual) {&lt;br&gt; CorePublisher publisher = Operators.&lt;span style=&quot;font-style: italic&quot;&gt;onLastAssembly&lt;/span&gt;(&lt;span style=&quot;color: rgb(204 , 120 , 50)&quot;&gt;this&lt;/span&gt;)&lt;span style=&quot;color: rgb(204 , 120 , 50)&quot;&gt;;&lt;br&gt;&lt;/span&gt;&lt;span style=&quot;color: rgb(204 , 120 , 50)&quot;&gt; &lt;/span&gt;CoreSubscriber subscriber = Operators.&lt;span style=&quot;font-style: italic&quot;&gt;toCoreSubscriber&lt;/span&gt;(actual)&lt;span style=&quot;color: rgb(204 , 120 , 50)&quot;&gt;;&lt;br&gt;&lt;/span&gt;&lt;span style=&quot;color: rgb(204 , 120 , 50)&quot;&gt;&lt;br&gt;&lt;/span&gt;&lt;span style=&quot;color: rgb(204 , 120 , 50)&quot;&gt; try &lt;/span&gt;{&lt;br&gt;  &lt;span style=&quot;color: rgb(204 , 120 , 50)&quot;&gt;if &lt;/span&gt;(publisher &lt;span style=&quot;color: rgb(204 , 120 , 50)&quot;&gt;instanceof &lt;/span&gt;OptimizableOperator) {&lt;br&gt;   OptimizableOperator operator = (OptimizableOperator) publisher&lt;span style=&quot;color: rgb(204 , 120 , 50)&quot;&gt;;&lt;br&gt;&lt;/span&gt;&lt;span style=&quot;color: rgb(204 , 120 , 50)&quot;&gt;   while &lt;/span&gt;(&lt;span style=&quot;color: rgb(204 , 120 , 50)&quot;&gt;true&lt;/span&gt;) {&lt;br&gt;    subscriber = operator.subscribeOrReturn(subscriber)&lt;span style=&quot;color: rgb(204 , 120 , 50)&quot;&gt;;&lt;br&gt;&lt;/span&gt;&lt;span style=&quot;color: rgb(204 , 120 , 50)&quot;&gt;    if &lt;/span&gt;(subscriber == &lt;span style=&quot;color: rgb(204 , 120 , 50)&quot;&gt;null&lt;/span&gt;) {&lt;br&gt;     &lt;span style=&quot;color: rgb(128 , 128 , 128)&quot;&gt;// null means &quot;I will subscribe myself&quot;, returning...&lt;br&gt;&lt;/span&gt;&lt;span style=&quot;color: rgb(128 , 128 , 128)&quot;&gt;     &lt;/span&gt;&lt;span style=&quot;color: rgb(204 , 120 , 50)&quot;&gt;return;&lt;br&gt;&lt;/span&gt;&lt;span style=&quot;color: rgb(204 , 120 , 50)&quot;&gt;    &lt;/span&gt;}&lt;br&gt;    OptimizableOperator newSource = operator.nextOptimizableSource()&lt;span style=&quot;color: rgb(204 , 120 , 50)&quot;&gt;;&lt;br&gt;&lt;/span&gt;&lt;span style=&quot;color: rgb(204 , 120 , 50)&quot;&gt;    if &lt;/span&gt;(newSource == &lt;span style=&quot;color: rgb(204 , 120 , 50)&quot;&gt;null&lt;/span&gt;) {&lt;br&gt;     publisher = operator.source()&lt;span style=&quot;color: rgb(204 , 120 , 50)&quot;&gt;;&lt;br&gt;&lt;/span&gt;&lt;span style=&quot;color: rgb(204 , 120 , 50)&quot;&gt;     break;&lt;br&gt;&lt;/span&gt;&lt;span style=&quot;color: rgb(204 , 120 , 50)&quot;&gt;    &lt;/span&gt;}&lt;br&gt;    operator = newSource&lt;span style=&quot;color: rgb(204 , 120 , 50)&quot;&gt;;&lt;br&gt;&lt;/span&gt;&lt;span style=&quot;color: rgb(204 , 120 , 50)&quot;&gt;   &lt;/span&gt;}&lt;br&gt;  }&lt;br&gt;&lt;br&gt;  publisher.subscribe(subscriber)&lt;span style=&quot;color: rgb(204 , 120 , 50)&quot;&gt;;&lt;br&gt;&lt;/span&gt;&lt;span style=&quot;color: rgb(204 , 120 , 50)&quot;&gt; &lt;/span&gt;}&lt;br&gt; &lt;span style=&quot;color: rgb(204 , 120 , 50)&quot;&gt;catch &lt;/span&gt;(Throwable e) {&lt;br&gt;  Operators.&lt;span style=&quot;font-style: italic&quot;&gt;reportThrowInSubscribe&lt;/span&gt;(subscriber&lt;span style=&quot;color: rgb(204 , 120 , 50)&quot;&gt;, &lt;/span&gt;e)&lt;span style=&quot;color: rgb(204 , 120 , 50)&quot;&gt;;&lt;br&gt;&lt;/span&gt;&lt;span style=&quot;color: rgb(204 , 120 , 50)&quot;&gt;  return;&lt;br&gt;&lt;/span&gt;&lt;span style=&quot;color: rgb(204 , 120 , 50)&quot;&gt; &lt;/span&gt;}&lt;br&gt;}&lt;/pre&gt;" style="text;whiteSpace=wrap;html=1;" vertex="1" parent="1">
          <mxGeometry x="190" y="170" width="520" height="450" as="geometry" />
        </mxCell>
        <mxCell id="tRnzTcPrwXnXobdImTXJ-10" value="" style="shape=image;html=1;verticalAlign=top;verticalLabelPosition=bottom;labelBackgroundColor=#ffffff;imageAspect=0;aspect=fixed;image=https://cdn3.iconfinder.com/data/icons/letters-and-numbers-1/32/number_2_green-128.png;fontSize=14;fontColor=#FF3333;" vertex="1" parent="1">
          <mxGeometry x="660" y="220" width="18" height="18" as="geometry" />
        </mxCell>
        <mxCell id="tRnzTcPrwXnXobdImTXJ-11" value="" style="shape=image;html=1;verticalAlign=top;verticalLabelPosition=bottom;labelBackgroundColor=#ffffff;imageAspect=0;aspect=fixed;image=https://cdn3.iconfinder.com/data/icons/letters-and-numbers-1/32/number_1_green-128.png;fontSize=14;fontColor=#FF3333;" vertex="1" parent="1">
          <mxGeometry x="610" y="200" width="20" height="20" as="geometry" />
        </mxCell>
        <mxCell id="tRnzTcPrwXnXobdImTXJ-14" value="" style="shape=image;html=1;verticalAlign=top;verticalLabelPosition=bottom;labelBackgroundColor=#ffffff;imageAspect=0;aspect=fixed;image=https://cdn3.iconfinder.com/data/icons/letters-and-numbers-1/32/number_4_green-128.png;fontSize=14;fontColor=#FF3333;" vertex="1" parent="1">
          <mxGeometry x="678" y="368" width="18" height="18" as="geometry" />
        </mxCell>
        <mxCell id="tRnzTcPrwXnXobdImTXJ-15" value="" style="shape=image;html=1;verticalAlign=top;verticalLabelPosition=bottom;labelBackgroundColor=#ffffff;imageAspect=0;aspect=fixed;image=https://cdn3.iconfinder.com/data/icons/letters-and-numbers-1/32/number_3_green-128.png;fontSize=14;fontColor=#FF3333;" vertex="1" parent="1">
          <mxGeometry x="590" y="300" width="18" height="18" as="geometry" />
        </mxCell>
        <mxCell id="tRnzTcPrwXnXobdImTXJ-17" value="" style="shape=image;html=1;verticalAlign=top;verticalLabelPosition=bottom;labelBackgroundColor=#ffffff;imageAspect=0;aspect=fixed;image=https://cdn3.iconfinder.com/data/icons/letters-and-numbers-1/32/number_5_green-128.png;fontSize=14;fontColor=#FF3333;" vertex="1" parent="1">
          <mxGeometry x="441" y="400" width="18" height="18" as="geometry" />
        </mxCell>
        <mxCell id="tRnzTcPrwXnXobdImTXJ-18" value="" style="shape=image;html=1;verticalAlign=top;verticalLabelPosition=bottom;labelBackgroundColor=#ffffff;imageAspect=0;aspect=fixed;image=https://cdn3.iconfinder.com/data/icons/letters-and-numbers-1/32/number_6_green-128.png;fontSize=14;fontColor=#FF3333;" vertex="1" parent="1">
          <mxGeometry x="441" y="490" width="18" height="18" as="geometry" />
        </mxCell>
        <mxCell id="tRnzTcPrwXnXobdImTXJ-20" value="" style="shape=image;html=1;verticalAlign=top;verticalLabelPosition=bottom;labelBackgroundColor=#ffffff;imageAspect=0;aspect=fixed;image=https://cdn3.iconfinder.com/data/icons/letters-and-numbers-1/32/number_1_green-128.png;fontSize=14;fontColor=#FF3333;" vertex="1" parent="1">
          <mxGeometry x="200" y="610" width="20" height="20" as="geometry" />
        </mxCell>
        <mxCell id="tRnzTcPrwXnXobdImTXJ-22" value="" style="shape=image;html=1;verticalAlign=top;verticalLabelPosition=bottom;labelBackgroundColor=#ffffff;imageAspect=0;aspect=fixed;image=https://cdn3.iconfinder.com/data/icons/letters-and-numbers-1/32/number_2_green-128.png;fontSize=14;fontColor=#FF3333;" vertex="1" parent="1">
          <mxGeometry x="202" y="650" width="18" height="18" as="geometry" />
        </mxCell>
        <mxCell id="tRnzTcPrwXnXobdImTXJ-23" value="" style="shape=image;html=1;verticalAlign=top;verticalLabelPosition=bottom;labelBackgroundColor=#ffffff;imageAspect=0;aspect=fixed;image=https://cdn3.iconfinder.com/data/icons/letters-and-numbers-1/32/number_3_green-128.png;fontSize=14;fontColor=#FF3333;" vertex="1" parent="1">
          <mxGeometry x="201" y="690" width="18" height="18" as="geometry" />
        </mxCell>
        <mxCell id="tRnzTcPrwXnXobdImTXJ-24" value="" style="shape=image;html=1;verticalAlign=top;verticalLabelPosition=bottom;labelBackgroundColor=#ffffff;imageAspect=0;aspect=fixed;image=https://cdn3.iconfinder.com/data/icons/letters-and-numbers-1/32/number_4_green-128.png;fontSize=14;fontColor=#FF3333;" vertex="1" parent="1">
          <mxGeometry x="200" y="730" width="18" height="18" as="geometry" />
        </mxCell>
        <mxCell id="tRnzTcPrwXnXobdImTXJ-25" value="" style="shape=image;html=1;verticalAlign=top;verticalLabelPosition=bottom;labelBackgroundColor=#ffffff;imageAspect=0;aspect=fixed;image=https://cdn3.iconfinder.com/data/icons/letters-and-numbers-1/32/number_5_green-128.png;fontSize=14;fontColor=#FF3333;" vertex="1" parent="1">
          <mxGeometry x="200" y="770" width="18" height="18" as="geometry" />
        </mxCell>
        <mxCell id="tRnzTcPrwXnXobdImTXJ-26" value="" style="shape=image;html=1;verticalAlign=top;verticalLabelPosition=bottom;labelBackgroundColor=#ffffff;imageAspect=0;aspect=fixed;image=https://cdn3.iconfinder.com/data/icons/letters-and-numbers-1/32/number_6_green-128.png;fontSize=14;fontColor=#FF3333;" vertex="1" parent="1">
          <mxGeometry x="200" y="810" width="18" height="18" as="geometry" />
        </mxCell>
      </root>
    </mxGraphModel>
  </diagram>
</mxfile>
